<?xml version="1.0" standalone="no"?>
<!DOCTYPE svg PUBLIC "-//W3C//DTD SVG 20010904//EN"
 "http://www.w3.org/TR/2001/REC-SVG-20010904/DTD/svg10.dtd">
<svg version="1.0" xmlns="http://www.w3.org/2000/svg"
 width="600.000000pt" height="600.000000pt" viewBox="0 0 600.000000 600.000000"
 preserveAspectRatio="xMidYMid meet">
<metadata>
Created by potrace 1.11, written by Peter Selinger 2001-2013
</metadata>
<g transform="translate(0.000000,600.000000) scale(0.100000,-0.100000)"
fill="#000000" stroke="none">
<path d="M0 3000 l0 -3000 3000 0 3000 0 0 3000 0 3000 -3000 0 -3000 0 0
-3000z m2635 2192 c196 -92 404 -243 607 -441 144 -139 218 -235 218 -280 0
-65 -108 -228 -186 -279 l-45 -30 -67 18 c-86 24 -245 80 -255 89 -4 5 8 27
28 51 45 53 58 78 52 95 -6 14 -108 94 -146 114 -17 10 -30 10 -47 2 -37 -17
-45 -51 -33 -138 21 -151 50 -187 187 -228 280 -85 284 -86 340 -139 64 -60
82 -92 82 -143 0 -46 -38 -129 -73 -162 -24 -22 -32 -23 -94 -18 -37 3 -136
26 -219 51 -294 89 -484 78 -609 -36 -88 -81 -127 -178 -160 -399 -28 -199
-17 -301 65 -587 33 -114 60 -216 60 -228 0 -38 13 -34 46 14 83 124 233 244
419 336 295 147 604 216 960 217 240 1 416 -24 594 -81 402 -130 661 -390 753
-755 29 -117 36 -363 13 -476 -105 -519 -645 -861 -1525 -964 -190 -23 -580
-30 -780 -16 -434 32 -843 112 -1155 226 -78 28 -107 34 -219 39 -242 12 -433
49 -507 99 -60 40 -74 82 -77 247 -2 107 2 186 18 300 12 85 25 225 30 310 20
340 40 499 95 746 75 335 213 787 298 975 144 318 463 823 694 1099 138 165
338 355 416 394 50 26 137 17 222 -22z"/>
<path d="M4444 2149 c-38 -11 -59 -35 -112 -125 -106 -182 -240 -325 -387
-414 -297 -179 -692 -166 -1105 38 -148 73 -187 80 -238 44 -60 -43 -67 -129
-15 -185 15 -16 87 -57 158 -92 443 -215 881 -239 1239 -70 109 52 228 140
331 246 152 157 287 361 289 437 2 83 -79 144 -160 121z"/>
</g>
</svg>
